<svg xmlns="http://www.w3.org/2000/svg" xmlns:xlink="http://www.w3.org/1999/xlink" width="500" zoomAndPan="magnify" viewBox="0 0 375 374.999991" height="500" preserveAspectRatio="xMidYMid meet" version="1.0"><defs><clipPath id="526c2c5aef"><path d="M 37.5 37.5 L 337.5 37.5 L 337.5 337.5 L 37.5 337.5 Z M 37.5 37.5 " clip-rule="nonzero"/></clipPath><clipPath id="d09f8a3e3a"><path d="M 187.5 37.5 C 104.65625 37.5 37.5 104.65625 37.5 187.5 C 37.5 270.34375 104.65625 337.5 187.5 337.5 C 270.34375 337.5 337.5 270.34375 337.5 187.5 C 337.5 104.65625 270.34375 37.5 187.5 37.5 Z M 187.5 37.5 " clip-rule="nonzero"/></clipPath><clipPath id="b91015c359"><path d="M 37.5 187.5 L 336 187.5 L 336 337.5 L 37.5 337.5 Z M 37.5 187.5 " clip-rule="nonzero"/></clipPath><clipPath id="5ec64febca"><path d="M 312 174 L 329.253906 174 L 329.253906 200 L 312 200 Z M 312 174 " clip-rule="nonzero"/></clipPath><clipPath id="582192dc37"><path d="M 176 305 L 195 305 L 195 330.761719 L 176 330.761719 Z M 176 305 " clip-rule="nonzero"/></clipPath><clipPath id="7135646018"><path d="M 43.503906 173 L 62 173 L 62 200 L 43.503906 200 Z M 43.503906 173 " clip-rule="nonzero"/></clipPath><clipPath id="4475fbcaa9"><path d="M 167 44.261719 L 178 44.261719 L 178 70 L 167 70 Z M 167 44.261719 " clip-rule="nonzero"/></clipPath><clipPath id="9ad59d58ac"><path d="M 184 44.261719 L 202 44.261719 L 202 70 L 184 70 Z M 184 44.261719 " clip-rule="nonzero"/></clipPath><clipPath id="6708583670"><path d="M 179.441406 181.265625 L 190.691406 181.265625 L 190.691406 192.515625 L 179.441406 192.515625 Z M 179.441406 181.265625 " clip-rule="nonzero"/></clipPath></defs><g clip-path="url(#526c2c5aef)"><g clip-path="url(#d09f8a3e3a)"><path fill="#fac90c" d="M 37.5 37.5 L 337.5 37.5 L 337.5 337.5 L 37.5 337.5 Z M 37.5 37.5 " fill-opacity="1" fill-rule="nonzero"/></g></g><g clip-path="url(#b91015c359)"><path fill="#5e738a" d="M 336.179688 187.5 L 336.179688 188.207031 C 336.179688 208.359375 332.234375 227.910156 324.449219 246.316406 C 316.929688 264.09375 306.164062 280.058594 292.457031 293.765625 C 278.746094 307.476562 262.78125 318.242188 245.003906 325.761719 C 226.597656 333.546875 207.046875 337.492188 186.894531 337.492188 C 166.738281 337.492188 147.1875 333.546875 128.785156 325.761719 C 111.007812 318.242188 95.042969 307.476562 81.332031 293.765625 C 67.621094 280.058594 56.855469 264.09375 49.339844 246.316406 C 41.554688 227.910156 37.605469 208.359375 37.605469 188.207031 L 37.605469 187.5 Z M 336.179688 187.5 " fill-opacity="1" fill-rule="nonzero"/></g><path stroke-linecap="butt" transform="matrix(0.649519, 0.375, -0.375, 0.649519, 58.698937, 111.851345)" fill="none" stroke-linejoin="miter" d="M 0.000110466 0.499439 L 197.42018 0.503496 " stroke="#5e738a" stroke-width="1" stroke-opacity="1" stroke-miterlimit="4"/><path stroke-linecap="butt" transform="matrix(0.377447, 0.6481, -0.6481, 0.377447, 112.009188, 58.612515)" fill="none" stroke-linejoin="miter" d="M -0.00156278 0.501472 L 197.419966 0.502166 " stroke="#5e738a" stroke-width="1" stroke-opacity="1" stroke-miterlimit="4"/><path stroke-linecap="butt" transform="matrix(0.000000001309, 0.75, -0.75, 0.000000001309, 185.078781, 37.499998)" fill="none" stroke-linejoin="miter" d="M 0.00000328246 0.500875 L 200.000016 0.500875 " stroke="#5e738a" stroke-width="1" stroke-opacity="1" stroke-miterlimit="4"/><path stroke-linecap="butt" transform="matrix(-0.378221, 0.647649, -0.647649, -0.378221, 260.886139, 57.402942)" fill="none" stroke-linejoin="miter" d="M 0.00104096 0.499105 L 199.99851 0.501015 " stroke="#5e738a" stroke-width="1" stroke-opacity="1" stroke-miterlimit="4"/><path stroke-linecap="butt" transform="matrix(-0.649519, 0.375, -0.375, -0.649519, 315.875492, 110.820917)" fill="none" stroke-linejoin="miter" d="M 0.000525528 0.500401 L 203.331028 0.498759 " stroke="#5e738a" stroke-width="1" stroke-opacity="1" stroke-miterlimit="4"/><path fill="#231f20" d="M 253.503906 81.902344 L 253.503906 61.558594 L 252.984375 61.300781 C 251.011719 62.441406 249.085938 63.269531 246.023438 64.308594 L 246.28125 65.660156 C 247.269531 65.347656 247.996094 65.035156 248.621094 65.035156 C 249.296875 65.035156 249.503906 65.660156 249.503906 67.164062 L 249.503906 81.953125 C 249.503906 84.445312 249.296875 84.808594 246.074219 84.808594 L 246.074219 86.15625 L 256.671875 86.15625 L 256.671875 84.757812 C 253.710938 84.757812 253.503906 84.394531 253.503906 81.902344 Z M 253.503906 81.902344 " fill-opacity="1" fill-rule="nonzero"/><path fill="#231f20" d="M 306.496094 127.414062 C 305.769531 130.269531 305.40625 130.789062 303.015625 130.789062 L 294.027344 130.789062 C 294.808594 128.296875 296.210938 126.535156 298.183594 124.976562 C 300.105469 123.523438 302.289062 122.277344 304.261719 120.722656 C 306.03125 119.320312 307.796875 117.347656 307.796875 114.753906 C 307.796875 111.691406 305.5625 108.578125 299.585938 108.578125 C 294.339844 108.578125 291.742188 111.484375 291.742188 113.613281 C 291.742188 114.753906 292.3125 115.375 293.144531 115.375 C 294.132812 115.375 294.757812 115.011719 295.121094 113.820312 C 295.898438 111.070312 297.355469 110.132812 299.378906 110.132812 C 301.875 110.132812 303.535156 111.535156 303.535156 114.441406 C 303.535156 117.035156 302.082031 118.59375 299.535156 120.410156 C 296.160156 122.847656 292.625 125.859375 291.117188 133.019531 L 291.691406 133.589844 L 306.914062 133.589844 L 308.003906 127.675781 Z M 306.496094 127.414062 " fill-opacity="1" fill-rule="nonzero"/><g clip-path="url(#5ec64febca)"><path fill="#231f20" d="M 321.929688 185.800781 L 321.929688 185.695312 C 326.96875 185.074219 328.265625 182.269531 328.265625 180.089844 C 328.265625 177.757812 326.914062 174.070312 320.316406 174.070312 C 315.484375 174.070312 312.578125 176.925781 312.578125 179.054688 C 312.578125 180.089844 313.042969 180.816406 313.980469 180.816406 C 315.328125 180.816406 315.695312 180.039062 316.160156 178.792969 C 316.785156 176.976562 318.136719 175.578125 320.160156 175.578125 C 322.863281 175.578125 324.214844 177.546875 324.214844 179.882812 C 324.214844 183.570312 321.097656 184.96875 317.617188 185.125 L 317.617188 186.578125 C 321.097656 186.578125 325.097656 187.71875 325.097656 192.390625 C 325.097656 196.75 322.449219 197.996094 320.265625 197.996094 C 318.445312 197.996094 317.40625 197.0625 316.679688 195.816406 C 316.003906 194.984375 315.589844 194.15625 315.175781 193.53125 C 314.707031 192.804688 314.238281 192.597656 313.5625 192.597656 C 312.523438 192.597656 312.003906 193.324219 312.003906 194.363281 C 312.003906 196.4375 314.550781 199.5 320.160156 199.5 C 326.761719 199.5 329.253906 195.609375 329.253906 192.183594 C 329.253906 188.082031 325.667969 186.007812 321.929688 185.800781 Z M 321.929688 185.800781 " fill-opacity="1" fill-rule="nonzero"/></g><path fill="#231f20" d="M 309.042969 257.574219 L 309.304688 255.757812 L 306.289062 255.757812 L 306.289062 239.410156 L 302.914062 239.410156 L 292.210938 256.328125 L 292.210938 257.625 L 302.238281 257.625 L 302.238281 260.117188 C 302.238281 262.503906 302.082031 262.972656 299.277344 262.972656 L 299.277344 264.320312 L 308.886719 264.320312 L 308.886719 262.972656 C 306.445312 262.972656 306.289062 262.554688 306.289062 260.117188 L 306.289062 257.574219 Z M 302.183594 246.519531 L 302.183594 255.757812 L 294.546875 255.757812 L 300.261719 246.570312 C 301.144531 245.273438 301.664062 244.082031 302.132812 243.40625 L 302.289062 243.40625 C 302.238281 244.445312 302.183594 245.585938 302.183594 246.519531 Z M 302.183594 246.519531 " fill-opacity="1" fill-rule="nonzero"/><path fill="#231f20" d="M 253.972656 294.367188 C 251.789062 294.367188 250.28125 294.886719 249.035156 295.875 L 248.984375 295.820312 L 250.125 288.710938 L 260.152344 288.710938 L 261.089844 285.339844 L 259.632812 285.339844 C 259.375 285.859375 259.21875 285.910156 257.660156 285.910156 L 248.414062 285.910156 L 246.75 298.15625 L 248.257812 298.574219 C 249.347656 297.015625 251.011719 295.976562 253.035156 295.976562 C 257.035156 295.976562 257.609375 299.765625 257.609375 302.464844 C 257.609375 304.746094 257.191406 306.253906 256.570312 307.445312 C 255.789062 308.742188 254.492188 309.46875 253.140625 309.46875 C 251.945312 309.46875 251.0625 309.003906 250.492188 308.277344 C 249.710938 307.289062 249.140625 306.304688 248.722656 305.320312 C 248.257812 304.382812 247.738281 304.125 247.0625 304.125 C 246.230469 304.125 245.449219 304.695312 245.449219 305.992188 C 245.449219 308.433594 248.671875 311.027344 253.035156 311.027344 C 257.867188 311.027344 261.816406 308.484375 261.816406 302.257812 C 261.867188 297.847656 259.375 294.367188 253.972656 294.367188 Z M 253.972656 294.367188 " fill-opacity="1" fill-rule="nonzero"/><g clip-path="url(#582192dc37)"><path fill="#231f20" d="M 186.429688 314.660156 C 183.832031 314.660156 181.808594 315.957031 180.714844 317.722656 L 180.613281 317.671875 C 180.613281 312.949219 181.652344 306.71875 185.753906 306.71875 C 187.832031 306.71875 188.769531 308.070312 189.339844 309.574219 C 189.910156 310.976562 190.378906 311.597656 191.523438 311.597656 C 192.457031 311.597656 192.976562 310.820312 192.976562 309.9375 C 192.976562 307.550781 190.222656 305.214844 185.910156 305.214844 C 178.535156 305.214844 176.558594 312.273438 176.558594 318.34375 C 176.558594 327.117188 180.300781 330.75 185.496094 330.75 C 191.417969 330.75 194.171875 327.117188 194.171875 322.238281 C 194.066406 318.136719 191.46875 314.660156 186.429688 314.660156 Z M 185.390625 329.140625 C 182.328125 329.140625 180.769531 325.402344 180.769531 321.40625 C 180.769531 318.707031 182.742188 316.269531 185.445312 316.269531 C 189.339844 316.269531 189.910156 320.785156 189.910156 322.339844 C 189.910156 326.492188 188.195312 329.140625 185.390625 329.140625 Z M 185.390625 329.140625 " fill-opacity="1" fill-rule="nonzero"/></g><path fill="#231f20" d="M 125.902344 287.570312 L 110.371094 287.570312 L 109.226562 293.488281 L 110.890625 293.488281 C 111.617188 290.632812 112.03125 290.371094 114.527344 290.371094 L 122.472656 290.371094 C 120.03125 293.277344 113.695312 302.101562 113.433594 312.480469 L 117.851562 312.480469 C 117.902344 308.277344 118.683594 304.488281 119.773438 301.21875 C 121.488281 295.40625 124.085938 291.308594 126.320312 288.402344 Z M 125.902344 287.570312 " fill-opacity="1" fill-rule="nonzero"/><path fill="#231f20" d="M 74.574219 249.320312 L 74.574219 249.269531 C 77.378906 248.285156 79.558594 246.519531 79.558594 243.769531 C 79.558594 240.085938 76.339844 237.957031 71.457031 237.957031 C 66.3125 237.957031 63.351562 240.449219 63.351562 243.976562 C 63.351562 245.898438 64.179688 248.542969 67.972656 250.464844 L 67.972656 250.566406 C 64.128906 252.226562 62.570312 254.460938 62.570312 256.742188 C 62.570312 261 66.207031 263.488281 71.351562 263.488281 C 77.949219 263.488281 80.441406 259.910156 80.441406 256.328125 C 80.441406 253.214844 77.535156 250.671875 74.574219 249.320312 Z M 67.089844 243.300781 C 67.089844 241.433594 68.285156 239.511719 71.351562 239.511719 C 75.613281 239.511719 75.765625 243.09375 75.765625 243.664062 C 75.765625 246.519531 73.949219 247.609375 72.234375 248.441406 C 69.53125 247.402344 67.089844 245.84375 67.089844 243.300781 Z M 71.351562 261.933594 C 68.492188 261.933594 66.414062 260.117188 66.414062 256.796875 C 66.414062 253.371094 68.960938 252.074219 70.105469 251.554688 C 71.765625 252.175781 76.183594 253.835938 76.183594 257.261719 C 76.183594 260.375 73.949219 261.933594 71.351562 261.933594 Z M 71.351562 261.933594 " fill-opacity="1" fill-rule="nonzero"/><g clip-path="url(#7135646018)"><path fill="#231f20" d="M 52.179688 173.8125 C 46.101562 173.8125 43.503906 177.703125 43.503906 182.117188 C 43.503906 186.734375 46.515625 189.847656 51.191406 189.847656 C 53.789062 189.847656 55.765625 188.65625 56.90625 186.785156 L 57.0625 186.785156 C 57.0625 189.898438 56.699219 197.789062 51.710938 197.789062 C 49.21875 197.789062 48.386719 196.128906 47.917969 194.882812 C 47.296875 193.480469 46.878906 192.910156 45.6875 192.910156 C 44.75 192.910156 44.230469 193.636719 44.230469 194.570312 C 44.230469 196.59375 46.570312 199.34375 51.660156 199.34375 C 58 199.34375 61.167969 194.414062 61.167969 185.75 C 61.167969 177.394531 57.117188 173.8125 52.179688 173.8125 Z M 52.179688 188.136719 C 47.917969 188.136719 47.710938 182.996094 47.710938 181.960938 C 47.710938 178.847656 48.90625 175.265625 52.285156 175.265625 C 55.296875 175.265625 56.90625 178.949219 56.90625 182.84375 C 56.855469 185.75 54.828125 188.136719 52.179688 188.136719 Z M 52.179688 188.136719 " fill-opacity="1" fill-rule="nonzero"/></g><path fill="#231f20" d="M 66.625 129.128906 L 66.625 108.734375 L 66.105469 108.472656 C 64.128906 109.617188 62.207031 110.445312 59.140625 111.484375 L 59.402344 112.832031 C 60.390625 112.523438 61.117188 112.210938 61.738281 112.210938 C 62.414062 112.210938 62.621094 112.832031 62.621094 114.339844 L 62.621094 129.128906 C 62.621094 131.621094 62.414062 131.984375 59.195312 131.984375 L 59.195312 133.332031 L 69.792969 133.332031 L 69.792969 131.984375 C 66.832031 131.929688 66.625 131.621094 66.625 129.128906 Z M 66.625 129.128906 " fill-opacity="1" fill-rule="nonzero"/><path fill="#231f20" d="M 91.5625 110.496094 C 90.160156 109.199219 88.238281 108.316406 85.535156 108.316406 C 82.886719 108.316406 81.015625 109.199219 79.558594 110.496094 C 77.378906 112.625 76.441406 116.207031 76.441406 120.929688 C 76.441406 125.808594 77.378906 129.179688 79.300781 131.257812 C 81.429688 133.488281 83.925781 133.800781 85.535156 133.800781 C 88.082031 133.800781 90.210938 132.96875 91.820312 131.257812 C 93.742188 129.179688 94.730469 125.808594 94.730469 120.929688 C 94.730469 116.207031 93.742188 112.625 91.5625 110.496094 Z M 88.859375 130.53125 C 87.925781 131.828125 86.832031 132.347656 85.535156 132.347656 C 84.234375 132.347656 83.09375 131.828125 82.210938 130.53125 C 81.273438 129.023438 80.546875 126.273438 80.546875 120.980469 C 80.546875 115.53125 81.378906 112.675781 82.417969 111.222656 C 83.351562 110.132812 84.390625 109.824219 85.535156 109.824219 C 86.574219 109.824219 87.71875 110.132812 88.652344 111.222656 C 89.691406 112.675781 90.523438 115.480469 90.523438 120.980469 C 90.523438 126.222656 89.847656 129.023438 88.859375 130.53125 Z M 88.859375 130.53125 " fill-opacity="1" fill-rule="nonzero"/><path fill="#231f20" d="M 116.65625 82.472656 L 116.65625 62.078125 L 116.136719 61.816406 C 114.160156 62.960938 112.238281 63.789062 109.175781 64.828125 L 109.433594 66.175781 C 110.421875 65.867188 111.148438 65.554688 111.773438 65.554688 C 112.449219 65.554688 112.65625 66.175781 112.65625 67.683594 L 112.65625 82.472656 C 112.65625 84.964844 112.449219 85.328125 109.226562 85.328125 L 109.226562 86.675781 L 119.824219 86.675781 L 119.824219 85.328125 C 116.8125 85.328125 116.65625 84.964844 116.65625 82.472656 Z M 116.65625 82.472656 " fill-opacity="1" fill-rule="nonzero"/><path fill="#231f20" d="M 137.800781 82.472656 L 137.800781 62.078125 L 137.28125 61.816406 C 135.308594 62.960938 133.386719 63.789062 130.320312 64.828125 L 130.578125 66.175781 C 131.566406 65.867188 132.292969 65.554688 132.917969 65.554688 C 133.59375 65.554688 133.800781 66.175781 133.800781 67.683594 L 133.800781 82.472656 C 133.800781 84.964844 133.59375 85.328125 130.371094 85.328125 L 130.371094 86.675781 L 140.96875 86.675781 L 140.96875 85.328125 C 137.957031 85.328125 137.800781 84.964844 137.800781 82.472656 Z M 137.800781 82.472656 " fill-opacity="1" fill-rule="nonzero"/><g clip-path="url(#4475fbcaa9)"><path fill="#231f20" d="M 174.585938 65.085938 L 174.585938 44.691406 L 174.066406 44.433594 C 172.089844 45.574219 170.167969 46.40625 167.105469 47.441406 L 167.363281 48.792969 C 168.351562 48.480469 169.078125 48.167969 169.703125 48.167969 C 170.375 48.167969 170.585938 48.792969 170.585938 50.296875 L 170.585938 65.085938 C 170.585938 67.578125 170.375 67.941406 167.15625 67.941406 L 167.15625 69.292969 L 177.753906 69.292969 L 177.753906 67.941406 C 174.792969 67.941406 174.585938 67.578125 174.585938 65.085938 Z M 174.585938 65.085938 " fill-opacity="1" fill-rule="nonzero"/></g><g clip-path="url(#9ad59d58ac)"><path fill="#231f20" d="M 200.355469 63.167969 C 199.628906 66.023438 199.261719 66.539062 196.875 66.539062 L 187.886719 66.539062 C 188.664062 64.050781 190.066406 62.285156 192.042969 60.726562 C 193.964844 59.273438 196.144531 58.03125 198.121094 56.472656 C 199.886719 55.070312 201.652344 53.097656 201.652344 50.503906 C 201.652344 47.390625 199.417969 44.277344 193.445312 44.277344 C 188.195312 44.277344 185.597656 47.183594 185.597656 49.3125 C 185.597656 50.453125 186.171875 51.074219 187.003906 51.074219 C 187.988281 51.074219 188.613281 50.710938 188.976562 49.519531 C 189.753906 46.769531 191.210938 45.832031 193.238281 45.832031 C 195.730469 45.832031 197.394531 47.234375 197.394531 50.140625 C 197.394531 52.734375 195.9375 54.292969 193.390625 56.109375 C 190.015625 58.546875 186.484375 61.558594 184.976562 68.71875 L 185.546875 69.292969 L 200.769531 69.292969 L 201.859375 63.375 Z M 200.355469 63.167969 " fill-opacity="1" fill-rule="nonzero"/></g><path fill="#231f20" d="M 188.144531 185.695312 C 188.144531 186.207031 188.046875 186.695312 187.851562 187.164062 C 187.65625 187.636719 187.378906 188.050781 187.019531 188.410156 C 186.660156 188.773438 186.242188 189.050781 185.773438 189.246094 C 185.300781 189.4375 184.808594 189.535156 184.300781 189.535156 C 183.789062 189.535156 183.300781 189.4375 182.828125 189.246094 C 182.359375 189.050781 181.941406 188.773438 181.582031 188.410156 C 181.222656 188.050781 180.945312 187.636719 180.75 187.164062 C 180.554688 186.695312 180.457031 186.207031 180.457031 185.695312 C 180.457031 185.1875 180.554688 184.695312 180.75 184.226562 C 180.945312 183.757812 181.222656 183.339844 181.582031 182.980469 C 181.941406 182.621094 182.359375 182.34375 182.828125 182.148438 C 183.300781 181.953125 183.789062 181.855469 184.300781 181.855469 C 184.808594 181.855469 185.300781 181.953125 185.773438 182.148438 C 186.242188 182.34375 186.660156 182.621094 187.019531 182.980469 C 187.378906 183.339844 187.65625 183.757812 187.851562 184.226562 C 188.046875 184.695312 188.144531 185.1875 188.144531 185.695312 Z M 188.144531 185.695312 " fill-opacity="1" fill-rule="nonzero"/><g clip-path="url(#6708583670)"><path fill="#000000" d="M 185.066406 181.265625 C 188.171875 181.265625 190.691406 183.785156 190.691406 186.890625 C 190.691406 189.996094 188.171875 192.515625 185.066406 192.515625 C 181.960938 192.515625 179.441406 189.996094 179.441406 186.890625 C 179.441406 183.785156 181.960938 181.265625 185.066406 181.265625 Z M 185.066406 181.265625 " fill-opacity="1" fill-rule="evenodd"/></g></svg>